<mxfile host="65bd71144e">
    <diagram id="u0M7EviF9h7cOf6rL7jb" name="Página-1">
        <mxGraphModel dx="820" dy="566" grid="1" gridSize="10" guides="1" tooltips="1" connect="1" arrows="1" fold="1" page="1" pageScale="1" pageWidth="827" pageHeight="1169" math="0" shadow="0">
            <root>
                <mxCell id="0"/>
                <mxCell id="1" parent="0"/>
                <mxCell id="4" value="" style="edgeStyle=none;html=1;" edge="1" parent="1" source="2">
                    <mxGeometry relative="1" as="geometry">
                        <mxPoint x="395" y="160" as="targetPoint"/>
                    </mxGeometry>
                </mxCell>
                <mxCell id="2" value="INICIO" style="ellipse;whiteSpace=wrap;html=1;fillColor=#60a917;fontColor=#ffffff;strokeColor=#2D7600;" vertex="1" parent="1">
                    <mxGeometry x="350" y="50" width="90" height="70" as="geometry"/>
                </mxCell>
                <mxCell id="7" value="" style="edgeStyle=none;html=1;" edge="1" parent="1" source="5" target="6">
                    <mxGeometry relative="1" as="geometry"/>
                </mxCell>
                <mxCell id="5" value="AÑO=1980&lt;br&gt;ciudadA=3.5 millones&lt;br&gt;ciudadB=5 millones" style="shape=parallelogram;perimeter=parallelogramPerimeter;whiteSpace=wrap;html=1;fixedSize=1;fillColor=#0050ef;fontColor=#ffffff;strokeColor=#001DBC;" vertex="1" parent="1">
                    <mxGeometry x="330" y="160" width="140" height="60" as="geometry"/>
                </mxCell>
                <mxCell id="9" value="" style="edgeStyle=none;html=1;" edge="1" parent="1" source="6" target="8">
                    <mxGeometry relative="1" as="geometry"/>
                </mxCell>
                <mxCell id="12" value="" style="edgeStyle=none;html=1;" edge="1" parent="1" source="6" target="11">
                    <mxGeometry relative="1" as="geometry">
                        <Array as="points">
                            <mxPoint x="650" y="330"/>
                        </Array>
                    </mxGeometry>
                </mxCell>
                <mxCell id="6" value="CiudadadA&amp;lt;Ciudadb" style="rhombus;whiteSpace=wrap;html=1;fillColor=#a20025;fontColor=#ffffff;strokeColor=#6F0000;" vertex="1" parent="1">
                    <mxGeometry x="290" y="250" width="220" height="160" as="geometry"/>
                </mxCell>
                <mxCell id="8" value="&lt;div style=&quot;color: rgb(212 , 212 , 212) ; background-color: rgb(30 , 30 , 30) ; font-family: &amp;#34;consolas&amp;#34; , &amp;#34;courier new&amp;#34; , monospace ; font-size: 14px ; line-height: 19px&quot;&gt;&lt;div&gt;&lt;span style=&quot;color: #9cdcfe&quot;&gt;ciudadA&lt;/span&gt;=(&lt;span style=&quot;color: #9cdcfe&quot;&gt;ciudadA&lt;/span&gt;*&lt;span style=&quot;color: #b5cea8&quot;&gt;0.07&lt;/span&gt;)+&lt;span style=&quot;color: #9cdcfe&quot;&gt;ciudadA&lt;/span&gt;&lt;/div&gt;&lt;div&gt;&amp;nbsp; &amp;nbsp; &lt;span style=&quot;color: #9cdcfe&quot;&gt;ciudadB&lt;/span&gt;=(&lt;span style=&quot;color: #9cdcfe&quot;&gt;ciudadB&lt;/span&gt;*&lt;span style=&quot;color: #b5cea8&quot;&gt;0.05&lt;/span&gt;)+&lt;span style=&quot;color: #9cdcfe&quot;&gt;ciudadB&lt;/span&gt;&lt;/div&gt;&lt;div&gt;&amp;nbsp; &amp;nbsp; &lt;span style=&quot;color: #9cdcfe&quot;&gt;AÑO&lt;/span&gt;=&lt;span style=&quot;color: #9cdcfe&quot;&gt;AÑO&lt;/span&gt;+&lt;span style=&quot;color: #b5cea8&quot;&gt;1&lt;/span&gt; &lt;/div&gt;&lt;br&gt;&lt;/div&gt;" style="whiteSpace=wrap;html=1;fillColor=#1ba1e2;fontColor=#ffffff;strokeColor=#006EAF;" vertex="1" parent="1">
                    <mxGeometry x="300" y="444.5" width="200" height="140" as="geometry"/>
                </mxCell>
                <mxCell id="10" value="" style="endArrow=classic;html=1;entryX=0;entryY=0.5;entryDx=0;entryDy=0;" edge="1" parent="1" target="6">
                    <mxGeometry width="50" height="50" relative="1" as="geometry">
                        <mxPoint x="400" y="585" as="sourcePoint"/>
                        <mxPoint x="450" y="535" as="targetPoint"/>
                        <Array as="points">
                            <mxPoint x="400" y="640"/>
                            <mxPoint x="170" y="640"/>
                            <mxPoint x="170" y="330"/>
                        </Array>
                    </mxGeometry>
                </mxCell>
                <mxCell id="15" value="" style="edgeStyle=none;html=1;" edge="1" parent="1" target="14">
                    <mxGeometry relative="1" as="geometry">
                        <mxPoint x="650" y="520" as="sourcePoint"/>
                    </mxGeometry>
                </mxCell>
                <mxCell id="11" value="AÑO" style="shape=document;whiteSpace=wrap;html=1;boundedLbl=1;fillColor=#d80073;fontColor=#ffffff;strokeColor=#A50040;" vertex="1" parent="1">
                    <mxGeometry x="590" y="444.5" width="120" height="80" as="geometry"/>
                </mxCell>
                <mxCell id="14" value="FIN" style="ellipse;whiteSpace=wrap;html=1;fillColor=#60a917;fontColor=#ffffff;strokeColor=#2D7600;" vertex="1" parent="1">
                    <mxGeometry x="590" y="610" width="120" height="60" as="geometry"/>
                </mxCell>
            </root>
        </mxGraphModel>
    </diagram>
</mxfile>